<mxfile host="Electron" modified="2024-01-16T10:01:08.670Z" agent="Mozilla/5.0 (Windows NT 10.0; Win64; x64) AppleWebKit/537.36 (KHTML, like Gecko) draw.io/21.7.5 Chrome/114.0.5735.289 Electron/25.8.1 Safari/537.36" etag="vUHuO381pHwjANrrXPWD" version="21.7.5" type="device">
  <diagram name="第 1 页" id="dwj-vWFfuq6tAOiyjyID">
    <mxGraphModel dx="1593" dy="938" grid="1" gridSize="10" guides="1" tooltips="1" connect="1" arrows="1" fold="1" page="1" pageScale="1" pageWidth="1169" pageHeight="827" math="0" shadow="0">
      <root>
        <mxCell id="0" />
        <mxCell id="1" parent="0" />
        <mxCell id="p7dw9C3AjrqsMlMxh2Bg-1" value="12001" style="rounded=1;whiteSpace=wrap;html=1;" vertex="1" parent="1">
          <mxGeometry x="360" y="150" width="120" height="60" as="geometry" />
        </mxCell>
        <mxCell id="p7dw9C3AjrqsMlMxh2Bg-41" style="edgeStyle=orthogonalEdgeStyle;rounded=0;orthogonalLoop=1;jettySize=auto;html=1;exitX=1;exitY=0.5;exitDx=0;exitDy=0;entryX=0;entryY=0.5;entryDx=0;entryDy=0;" edge="1" parent="1" source="p7dw9C3AjrqsMlMxh2Bg-2" target="p7dw9C3AjrqsMlMxh2Bg-3">
          <mxGeometry relative="1" as="geometry" />
        </mxCell>
        <mxCell id="p7dw9C3AjrqsMlMxh2Bg-2" value="12008" style="rounded=1;whiteSpace=wrap;html=1;" vertex="1" parent="1">
          <mxGeometry x="540" y="150" width="120" height="60" as="geometry" />
        </mxCell>
        <mxCell id="p7dw9C3AjrqsMlMxh2Bg-3" value="" style="rounded=1;whiteSpace=wrap;html=1;" vertex="1" parent="1">
          <mxGeometry x="720" y="150" width="120" height="60" as="geometry" />
        </mxCell>
        <mxCell id="p7dw9C3AjrqsMlMxh2Bg-40" style="edgeStyle=orthogonalEdgeStyle;rounded=0;orthogonalLoop=1;jettySize=auto;html=1;exitX=1;exitY=0.5;exitDx=0;exitDy=0;entryX=0;entryY=0.5;entryDx=0;entryDy=0;" edge="1" parent="1" source="p7dw9C3AjrqsMlMxh2Bg-4" target="p7dw9C3AjrqsMlMxh2Bg-5">
          <mxGeometry relative="1" as="geometry" />
        </mxCell>
        <mxCell id="p7dw9C3AjrqsMlMxh2Bg-42" style="edgeStyle=orthogonalEdgeStyle;rounded=0;orthogonalLoop=1;jettySize=auto;html=1;exitX=1;exitY=0.5;exitDx=0;exitDy=0;entryX=0;entryY=0.5;entryDx=0;entryDy=0;" edge="1" parent="1" source="p7dw9C3AjrqsMlMxh2Bg-4" target="p7dw9C3AjrqsMlMxh2Bg-8">
          <mxGeometry relative="1" as="geometry" />
        </mxCell>
        <mxCell id="p7dw9C3AjrqsMlMxh2Bg-4" value="12002" style="rounded=1;whiteSpace=wrap;html=1;" vertex="1" parent="1">
          <mxGeometry x="360" y="240" width="120" height="60" as="geometry" />
        </mxCell>
        <mxCell id="p7dw9C3AjrqsMlMxh2Bg-43" style="edgeStyle=orthogonalEdgeStyle;rounded=0;orthogonalLoop=1;jettySize=auto;html=1;exitX=1;exitY=0.5;exitDx=0;exitDy=0;entryX=0;entryY=0.5;entryDx=0;entryDy=0;" edge="1" parent="1" source="p7dw9C3AjrqsMlMxh2Bg-5" target="p7dw9C3AjrqsMlMxh2Bg-6">
          <mxGeometry relative="1" as="geometry" />
        </mxCell>
        <mxCell id="p7dw9C3AjrqsMlMxh2Bg-5" value="16001" style="rounded=1;whiteSpace=wrap;html=1;" vertex="1" parent="1">
          <mxGeometry x="540" y="240" width="120" height="60" as="geometry" />
        </mxCell>
        <mxCell id="p7dw9C3AjrqsMlMxh2Bg-6" value="" style="rounded=1;whiteSpace=wrap;html=1;" vertex="1" parent="1">
          <mxGeometry x="720" y="240" width="120" height="60" as="geometry" />
        </mxCell>
        <mxCell id="p7dw9C3AjrqsMlMxh2Bg-7" value="12003" style="rounded=1;whiteSpace=wrap;html=1;" vertex="1" parent="1">
          <mxGeometry x="360" y="330" width="120" height="60" as="geometry" />
        </mxCell>
        <mxCell id="p7dw9C3AjrqsMlMxh2Bg-8" value="16002" style="rounded=1;whiteSpace=wrap;html=1;" vertex="1" parent="1">
          <mxGeometry x="540" y="330" width="120" height="60" as="geometry" />
        </mxCell>
        <mxCell id="p7dw9C3AjrqsMlMxh2Bg-9" value="" style="rounded=1;whiteSpace=wrap;html=1;" vertex="1" parent="1">
          <mxGeometry x="720" y="330" width="120" height="60" as="geometry" />
        </mxCell>
        <mxCell id="p7dw9C3AjrqsMlMxh2Bg-10" value="12004" style="rounded=1;whiteSpace=wrap;html=1;" vertex="1" parent="1">
          <mxGeometry x="360" y="420" width="120" height="60" as="geometry" />
        </mxCell>
        <mxCell id="p7dw9C3AjrqsMlMxh2Bg-11" value="16004" style="rounded=1;whiteSpace=wrap;html=1;" vertex="1" parent="1">
          <mxGeometry x="540" y="420" width="120" height="60" as="geometry" />
        </mxCell>
        <mxCell id="p7dw9C3AjrqsMlMxh2Bg-12" value="" style="rounded=1;whiteSpace=wrap;html=1;" vertex="1" parent="1">
          <mxGeometry x="720" y="420" width="120" height="60" as="geometry" />
        </mxCell>
        <mxCell id="p7dw9C3AjrqsMlMxh2Bg-48" style="edgeStyle=orthogonalEdgeStyle;rounded=0;orthogonalLoop=1;jettySize=auto;html=1;exitX=1;exitY=0.5;exitDx=0;exitDy=0;entryX=0;entryY=0.5;entryDx=0;entryDy=0;" edge="1" parent="1" source="p7dw9C3AjrqsMlMxh2Bg-13" target="p7dw9C3AjrqsMlMxh2Bg-14">
          <mxGeometry relative="1" as="geometry" />
        </mxCell>
        <mxCell id="p7dw9C3AjrqsMlMxh2Bg-13" value="12005" style="rounded=1;whiteSpace=wrap;html=1;" vertex="1" parent="1">
          <mxGeometry x="360" y="510" width="120" height="60" as="geometry" />
        </mxCell>
        <mxCell id="p7dw9C3AjrqsMlMxh2Bg-49" style="edgeStyle=orthogonalEdgeStyle;rounded=0;orthogonalLoop=1;jettySize=auto;html=1;exitX=1;exitY=0.5;exitDx=0;exitDy=0;" edge="1" parent="1" source="p7dw9C3AjrqsMlMxh2Bg-14" target="p7dw9C3AjrqsMlMxh2Bg-15">
          <mxGeometry relative="1" as="geometry" />
        </mxCell>
        <mxCell id="p7dw9C3AjrqsMlMxh2Bg-14" value="17001" style="rounded=1;whiteSpace=wrap;html=1;" vertex="1" parent="1">
          <mxGeometry x="540" y="510" width="120" height="60" as="geometry" />
        </mxCell>
        <mxCell id="p7dw9C3AjrqsMlMxh2Bg-15" value="46001" style="rounded=1;whiteSpace=wrap;html=1;" vertex="1" parent="1">
          <mxGeometry x="720" y="510" width="120" height="60" as="geometry" />
        </mxCell>
        <mxCell id="p7dw9C3AjrqsMlMxh2Bg-50" style="edgeStyle=orthogonalEdgeStyle;rounded=0;orthogonalLoop=1;jettySize=auto;html=1;exitX=1;exitY=0.5;exitDx=0;exitDy=0;entryX=0;entryY=0.5;entryDx=0;entryDy=0;" edge="1" parent="1" source="p7dw9C3AjrqsMlMxh2Bg-16" target="p7dw9C3AjrqsMlMxh2Bg-18">
          <mxGeometry relative="1" as="geometry" />
        </mxCell>
        <mxCell id="p7dw9C3AjrqsMlMxh2Bg-16" value="12006" style="rounded=1;whiteSpace=wrap;html=1;" vertex="1" parent="1">
          <mxGeometry x="360" y="600" width="120" height="60" as="geometry" />
        </mxCell>
        <mxCell id="p7dw9C3AjrqsMlMxh2Bg-17" value="12007" style="rounded=1;whiteSpace=wrap;html=1;" vertex="1" parent="1">
          <mxGeometry x="540" y="600" width="120" height="60" as="geometry" />
        </mxCell>
        <mxCell id="p7dw9C3AjrqsMlMxh2Bg-18" value="" style="rounded=1;whiteSpace=wrap;html=1;" vertex="1" parent="1">
          <mxGeometry x="720" y="600" width="120" height="60" as="geometry" />
        </mxCell>
        <mxCell id="p7dw9C3AjrqsMlMxh2Bg-21" value="1" style="shape=process;whiteSpace=wrap;html=1;backgroundOutline=1;" vertex="1" parent="1">
          <mxGeometry x="360" y="60" width="120" height="60" as="geometry" />
        </mxCell>
        <mxCell id="p7dw9C3AjrqsMlMxh2Bg-22" value="2" style="shape=process;whiteSpace=wrap;html=1;backgroundOutline=1;" vertex="1" parent="1">
          <mxGeometry x="540" y="60" width="120" height="60" as="geometry" />
        </mxCell>
        <mxCell id="p7dw9C3AjrqsMlMxh2Bg-23" value="3" style="shape=process;whiteSpace=wrap;html=1;backgroundOutline=1;" vertex="1" parent="1">
          <mxGeometry x="720" y="60" width="120" height="60" as="geometry" />
        </mxCell>
        <mxCell id="p7dw9C3AjrqsMlMxh2Bg-24" value="1" style="shape=process;whiteSpace=wrap;html=1;backgroundOutline=1;" vertex="1" parent="1">
          <mxGeometry x="210" y="150" width="120" height="60" as="geometry" />
        </mxCell>
        <mxCell id="p7dw9C3AjrqsMlMxh2Bg-25" value="2" style="shape=process;whiteSpace=wrap;html=1;backgroundOutline=1;" vertex="1" parent="1">
          <mxGeometry x="210" y="240" width="120" height="60" as="geometry" />
        </mxCell>
        <mxCell id="p7dw9C3AjrqsMlMxh2Bg-26" value="3" style="shape=process;whiteSpace=wrap;html=1;backgroundOutline=1;" vertex="1" parent="1">
          <mxGeometry x="210" y="330" width="120" height="60" as="geometry" />
        </mxCell>
        <mxCell id="p7dw9C3AjrqsMlMxh2Bg-27" value="4" style="shape=process;whiteSpace=wrap;html=1;backgroundOutline=1;" vertex="1" parent="1">
          <mxGeometry x="210" y="420" width="120" height="60" as="geometry" />
        </mxCell>
        <mxCell id="p7dw9C3AjrqsMlMxh2Bg-28" value="5" style="shape=process;whiteSpace=wrap;html=1;backgroundOutline=1;" vertex="1" parent="1">
          <mxGeometry x="210" y="510" width="120" height="60" as="geometry" />
        </mxCell>
        <mxCell id="p7dw9C3AjrqsMlMxh2Bg-29" value="6" style="shape=process;whiteSpace=wrap;html=1;backgroundOutline=1;" vertex="1" parent="1">
          <mxGeometry x="210" y="600" width="120" height="60" as="geometry" />
        </mxCell>
        <mxCell id="p7dw9C3AjrqsMlMxh2Bg-51" style="edgeStyle=orthogonalEdgeStyle;rounded=0;orthogonalLoop=1;jettySize=auto;html=1;exitX=1;exitY=0.5;exitDx=0;exitDy=0;entryX=0;entryY=0.5;entryDx=0;entryDy=0;" edge="1" parent="1" source="p7dw9C3AjrqsMlMxh2Bg-31" target="p7dw9C3AjrqsMlMxh2Bg-36">
          <mxGeometry relative="1" as="geometry" />
        </mxCell>
        <mxCell id="p7dw9C3AjrqsMlMxh2Bg-31" value="20001" style="rounded=1;whiteSpace=wrap;html=1;" vertex="1" parent="1">
          <mxGeometry x="360" y="680" width="120" height="60" as="geometry" />
        </mxCell>
        <mxCell id="p7dw9C3AjrqsMlMxh2Bg-53" style="edgeStyle=orthogonalEdgeStyle;rounded=0;orthogonalLoop=1;jettySize=auto;html=1;exitX=1;exitY=0.5;exitDx=0;exitDy=0;entryX=0;entryY=0.5;entryDx=0;entryDy=0;" edge="1" parent="1" source="p7dw9C3AjrqsMlMxh2Bg-32" target="p7dw9C3AjrqsMlMxh2Bg-33">
          <mxGeometry relative="1" as="geometry" />
        </mxCell>
        <mxCell id="p7dw9C3AjrqsMlMxh2Bg-32" value="20006" style="rounded=1;whiteSpace=wrap;html=1;" vertex="1" parent="1">
          <mxGeometry x="540" y="680" width="120" height="60" as="geometry" />
        </mxCell>
        <mxCell id="p7dw9C3AjrqsMlMxh2Bg-33" value="20003" style="rounded=1;whiteSpace=wrap;html=1;" vertex="1" parent="1">
          <mxGeometry x="720" y="680" width="120" height="60" as="geometry" />
        </mxCell>
        <mxCell id="p7dw9C3AjrqsMlMxh2Bg-34" value="7" style="shape=process;whiteSpace=wrap;html=1;backgroundOutline=1;" vertex="1" parent="1">
          <mxGeometry x="210" y="680" width="120" height="60" as="geometry" />
        </mxCell>
        <mxCell id="p7dw9C3AjrqsMlMxh2Bg-35" value="" style="rounded=1;whiteSpace=wrap;html=1;" vertex="1" parent="1">
          <mxGeometry x="360" y="760" width="120" height="60" as="geometry" />
        </mxCell>
        <mxCell id="p7dw9C3AjrqsMlMxh2Bg-36" value="20008" style="rounded=1;whiteSpace=wrap;html=1;" vertex="1" parent="1">
          <mxGeometry x="540" y="760" width="120" height="60" as="geometry" />
        </mxCell>
        <mxCell id="p7dw9C3AjrqsMlMxh2Bg-37" value="20010" style="rounded=1;whiteSpace=wrap;html=1;" vertex="1" parent="1">
          <mxGeometry x="720" y="760" width="120" height="60" as="geometry" />
        </mxCell>
        <mxCell id="p7dw9C3AjrqsMlMxh2Bg-38" value="8" style="shape=process;whiteSpace=wrap;html=1;backgroundOutline=1;" vertex="1" parent="1">
          <mxGeometry x="210" y="760" width="120" height="60" as="geometry" />
        </mxCell>
        <mxCell id="p7dw9C3AjrqsMlMxh2Bg-46" value="" style="endArrow=none;html=1;rounded=0;" edge="1" parent="1">
          <mxGeometry width="50" height="50" relative="1" as="geometry">
            <mxPoint x="160" y="670" as="sourcePoint" />
            <mxPoint x="880" y="670" as="targetPoint" />
          </mxGeometry>
        </mxCell>
        <mxCell id="p7dw9C3AjrqsMlMxh2Bg-54" value="12009" style="rounded=1;whiteSpace=wrap;html=1;" vertex="1" parent="1">
          <mxGeometry x="1130" y="157" width="120" height="60" as="geometry" />
        </mxCell>
        <mxCell id="p7dw9C3AjrqsMlMxh2Bg-55" style="edgeStyle=orthogonalEdgeStyle;rounded=0;orthogonalLoop=1;jettySize=auto;html=1;exitX=1;exitY=0.5;exitDx=0;exitDy=0;entryX=0;entryY=0.5;entryDx=0;entryDy=0;" edge="1" parent="1" source="p7dw9C3AjrqsMlMxh2Bg-56" target="p7dw9C3AjrqsMlMxh2Bg-57">
          <mxGeometry relative="1" as="geometry" />
        </mxCell>
        <mxCell id="p7dw9C3AjrqsMlMxh2Bg-56" value="13001" style="rounded=1;whiteSpace=wrap;html=1;" vertex="1" parent="1">
          <mxGeometry x="1310" y="157" width="120" height="60" as="geometry" />
        </mxCell>
        <mxCell id="p7dw9C3AjrqsMlMxh2Bg-57" value="14005" style="rounded=1;whiteSpace=wrap;html=1;" vertex="1" parent="1">
          <mxGeometry x="1490" y="157" width="120" height="60" as="geometry" />
        </mxCell>
        <mxCell id="p7dw9C3AjrqsMlMxh2Bg-58" style="edgeStyle=orthogonalEdgeStyle;rounded=0;orthogonalLoop=1;jettySize=auto;html=1;exitX=1;exitY=0.5;exitDx=0;exitDy=0;entryX=0;entryY=0.5;entryDx=0;entryDy=0;" edge="1" parent="1" source="p7dw9C3AjrqsMlMxh2Bg-60" target="p7dw9C3AjrqsMlMxh2Bg-62">
          <mxGeometry relative="1" as="geometry" />
        </mxCell>
        <mxCell id="p7dw9C3AjrqsMlMxh2Bg-60" value="12010" style="rounded=1;whiteSpace=wrap;html=1;" vertex="1" parent="1">
          <mxGeometry x="1130" y="247" width="120" height="60" as="geometry" />
        </mxCell>
        <mxCell id="p7dw9C3AjrqsMlMxh2Bg-61" style="edgeStyle=orthogonalEdgeStyle;rounded=0;orthogonalLoop=1;jettySize=auto;html=1;exitX=1;exitY=0.5;exitDx=0;exitDy=0;entryX=0;entryY=0.5;entryDx=0;entryDy=0;" edge="1" parent="1" source="p7dw9C3AjrqsMlMxh2Bg-62" target="p7dw9C3AjrqsMlMxh2Bg-63">
          <mxGeometry relative="1" as="geometry" />
        </mxCell>
        <mxCell id="p7dw9C3AjrqsMlMxh2Bg-62" value="13002" style="rounded=1;whiteSpace=wrap;html=1;" vertex="1" parent="1">
          <mxGeometry x="1310" y="247" width="120" height="60" as="geometry" />
        </mxCell>
        <mxCell id="p7dw9C3AjrqsMlMxh2Bg-63" value="14006" style="rounded=1;whiteSpace=wrap;html=1;" vertex="1" parent="1">
          <mxGeometry x="1490" y="247" width="120" height="60" as="geometry" />
        </mxCell>
        <mxCell id="p7dw9C3AjrqsMlMxh2Bg-64" value="12011" style="rounded=1;whiteSpace=wrap;html=1;" vertex="1" parent="1">
          <mxGeometry x="1130" y="337" width="120" height="60" as="geometry" />
        </mxCell>
        <mxCell id="p7dw9C3AjrqsMlMxh2Bg-65" value="" style="rounded=1;whiteSpace=wrap;html=1;" vertex="1" parent="1">
          <mxGeometry x="1310" y="337" width="120" height="60" as="geometry" />
        </mxCell>
        <mxCell id="p7dw9C3AjrqsMlMxh2Bg-66" value="15001" style="rounded=1;whiteSpace=wrap;html=1;" vertex="1" parent="1">
          <mxGeometry x="1490" y="337" width="120" height="60" as="geometry" />
        </mxCell>
        <mxCell id="p7dw9C3AjrqsMlMxh2Bg-67" value="12012" style="rounded=1;whiteSpace=wrap;html=1;" vertex="1" parent="1">
          <mxGeometry x="1130" y="427" width="120" height="60" as="geometry" />
        </mxCell>
        <mxCell id="p7dw9C3AjrqsMlMxh2Bg-68" value="14001" style="rounded=1;whiteSpace=wrap;html=1;" vertex="1" parent="1">
          <mxGeometry x="1310" y="427" width="120" height="60" as="geometry" />
        </mxCell>
        <mxCell id="p7dw9C3AjrqsMlMxh2Bg-69" value="20009" style="rounded=1;whiteSpace=wrap;html=1;" vertex="1" parent="1">
          <mxGeometry x="1490" y="427" width="120" height="60" as="geometry" />
        </mxCell>
        <mxCell id="p7dw9C3AjrqsMlMxh2Bg-70" style="edgeStyle=orthogonalEdgeStyle;rounded=0;orthogonalLoop=1;jettySize=auto;html=1;exitX=1;exitY=0.5;exitDx=0;exitDy=0;entryX=0;entryY=0.5;entryDx=0;entryDy=0;" edge="1" parent="1" source="p7dw9C3AjrqsMlMxh2Bg-71" target="p7dw9C3AjrqsMlMxh2Bg-73">
          <mxGeometry relative="1" as="geometry" />
        </mxCell>
        <mxCell id="p7dw9C3AjrqsMlMxh2Bg-71" value="12013" style="rounded=1;whiteSpace=wrap;html=1;" vertex="1" parent="1">
          <mxGeometry x="1130" y="517" width="120" height="60" as="geometry" />
        </mxCell>
        <mxCell id="p7dw9C3AjrqsMlMxh2Bg-72" style="edgeStyle=orthogonalEdgeStyle;rounded=0;orthogonalLoop=1;jettySize=auto;html=1;exitX=1;exitY=0.5;exitDx=0;exitDy=0;" edge="1" parent="1" source="p7dw9C3AjrqsMlMxh2Bg-73" target="p7dw9C3AjrqsMlMxh2Bg-74">
          <mxGeometry relative="1" as="geometry" />
        </mxCell>
        <mxCell id="p7dw9C3AjrqsMlMxh2Bg-73" value="14002" style="rounded=1;whiteSpace=wrap;html=1;" vertex="1" parent="1">
          <mxGeometry x="1310" y="517" width="120" height="60" as="geometry" />
        </mxCell>
        <mxCell id="p7dw9C3AjrqsMlMxh2Bg-74" value="14004" style="rounded=1;whiteSpace=wrap;html=1;" vertex="1" parent="1">
          <mxGeometry x="1490" y="517" width="120" height="60" as="geometry" />
        </mxCell>
        <mxCell id="p7dw9C3AjrqsMlMxh2Bg-75" style="edgeStyle=orthogonalEdgeStyle;rounded=0;orthogonalLoop=1;jettySize=auto;html=1;exitX=1;exitY=0.5;exitDx=0;exitDy=0;entryX=0;entryY=0.5;entryDx=0;entryDy=0;" edge="1" parent="1" source="p7dw9C3AjrqsMlMxh2Bg-76" target="p7dw9C3AjrqsMlMxh2Bg-78">
          <mxGeometry relative="1" as="geometry" />
        </mxCell>
        <mxCell id="p7dw9C3AjrqsMlMxh2Bg-76" value="12014" style="rounded=1;whiteSpace=wrap;html=1;" vertex="1" parent="1">
          <mxGeometry x="1130" y="607" width="120" height="60" as="geometry" />
        </mxCell>
        <mxCell id="p7dw9C3AjrqsMlMxh2Bg-77" value="13003" style="rounded=1;whiteSpace=wrap;html=1;" vertex="1" parent="1">
          <mxGeometry x="1310" y="607" width="120" height="60" as="geometry" />
        </mxCell>
        <mxCell id="p7dw9C3AjrqsMlMxh2Bg-78" value="14003" style="rounded=1;whiteSpace=wrap;html=1;" vertex="1" parent="1">
          <mxGeometry x="1490" y="607" width="120" height="60" as="geometry" />
        </mxCell>
        <mxCell id="p7dw9C3AjrqsMlMxh2Bg-79" value="1" style="shape=process;whiteSpace=wrap;html=1;backgroundOutline=1;" vertex="1" parent="1">
          <mxGeometry x="1130" y="67" width="120" height="60" as="geometry" />
        </mxCell>
        <mxCell id="p7dw9C3AjrqsMlMxh2Bg-80" value="2" style="shape=process;whiteSpace=wrap;html=1;backgroundOutline=1;" vertex="1" parent="1">
          <mxGeometry x="1310" y="67" width="120" height="60" as="geometry" />
        </mxCell>
        <mxCell id="p7dw9C3AjrqsMlMxh2Bg-81" value="3" style="shape=process;whiteSpace=wrap;html=1;backgroundOutline=1;" vertex="1" parent="1">
          <mxGeometry x="1490" y="67" width="120" height="60" as="geometry" />
        </mxCell>
        <mxCell id="p7dw9C3AjrqsMlMxh2Bg-82" value="1" style="shape=process;whiteSpace=wrap;html=1;backgroundOutline=1;" vertex="1" parent="1">
          <mxGeometry x="980" y="157" width="120" height="60" as="geometry" />
        </mxCell>
        <mxCell id="p7dw9C3AjrqsMlMxh2Bg-83" value="2" style="shape=process;whiteSpace=wrap;html=1;backgroundOutline=1;" vertex="1" parent="1">
          <mxGeometry x="980" y="247" width="120" height="60" as="geometry" />
        </mxCell>
        <mxCell id="p7dw9C3AjrqsMlMxh2Bg-84" value="3" style="shape=process;whiteSpace=wrap;html=1;backgroundOutline=1;" vertex="1" parent="1">
          <mxGeometry x="980" y="337" width="120" height="60" as="geometry" />
        </mxCell>
        <mxCell id="p7dw9C3AjrqsMlMxh2Bg-85" value="4" style="shape=process;whiteSpace=wrap;html=1;backgroundOutline=1;" vertex="1" parent="1">
          <mxGeometry x="980" y="427" width="120" height="60" as="geometry" />
        </mxCell>
        <mxCell id="p7dw9C3AjrqsMlMxh2Bg-86" value="5" style="shape=process;whiteSpace=wrap;html=1;backgroundOutline=1;" vertex="1" parent="1">
          <mxGeometry x="980" y="517" width="120" height="60" as="geometry" />
        </mxCell>
        <mxCell id="p7dw9C3AjrqsMlMxh2Bg-87" value="6" style="shape=process;whiteSpace=wrap;html=1;backgroundOutline=1;" vertex="1" parent="1">
          <mxGeometry x="980" y="607" width="120" height="60" as="geometry" />
        </mxCell>
        <mxCell id="p7dw9C3AjrqsMlMxh2Bg-88" style="edgeStyle=orthogonalEdgeStyle;rounded=0;orthogonalLoop=1;jettySize=auto;html=1;exitX=1;exitY=0.5;exitDx=0;exitDy=0;entryX=0;entryY=0.5;entryDx=0;entryDy=0;" edge="1" parent="1" source="p7dw9C3AjrqsMlMxh2Bg-89" target="p7dw9C3AjrqsMlMxh2Bg-95">
          <mxGeometry relative="1" as="geometry" />
        </mxCell>
        <mxCell id="p7dw9C3AjrqsMlMxh2Bg-89" value="20002" style="rounded=1;whiteSpace=wrap;html=1;" vertex="1" parent="1">
          <mxGeometry x="1130" y="687" width="120" height="60" as="geometry" />
        </mxCell>
        <mxCell id="p7dw9C3AjrqsMlMxh2Bg-90" style="edgeStyle=orthogonalEdgeStyle;rounded=0;orthogonalLoop=1;jettySize=auto;html=1;exitX=1;exitY=0.5;exitDx=0;exitDy=0;entryX=0;entryY=0.5;entryDx=0;entryDy=0;" edge="1" parent="1" source="p7dw9C3AjrqsMlMxh2Bg-91" target="p7dw9C3AjrqsMlMxh2Bg-92">
          <mxGeometry relative="1" as="geometry" />
        </mxCell>
        <mxCell id="p7dw9C3AjrqsMlMxh2Bg-91" value="20005" style="rounded=1;whiteSpace=wrap;html=1;" vertex="1" parent="1">
          <mxGeometry x="1310" y="687" width="120" height="60" as="geometry" />
        </mxCell>
        <mxCell id="p7dw9C3AjrqsMlMxh2Bg-92" value="20004" style="rounded=1;whiteSpace=wrap;html=1;" vertex="1" parent="1">
          <mxGeometry x="1490" y="687" width="120" height="60" as="geometry" />
        </mxCell>
        <mxCell id="p7dw9C3AjrqsMlMxh2Bg-93" value="7" style="shape=process;whiteSpace=wrap;html=1;backgroundOutline=1;" vertex="1" parent="1">
          <mxGeometry x="980" y="687" width="120" height="60" as="geometry" />
        </mxCell>
        <mxCell id="p7dw9C3AjrqsMlMxh2Bg-94" value="" style="rounded=1;whiteSpace=wrap;html=1;" vertex="1" parent="1">
          <mxGeometry x="1130" y="767" width="120" height="60" as="geometry" />
        </mxCell>
        <mxCell id="p7dw9C3AjrqsMlMxh2Bg-95" value="20007" style="rounded=1;whiteSpace=wrap;html=1;" vertex="1" parent="1">
          <mxGeometry x="1310" y="767" width="120" height="60" as="geometry" />
        </mxCell>
        <mxCell id="p7dw9C3AjrqsMlMxh2Bg-96" value="" style="rounded=1;whiteSpace=wrap;html=1;" vertex="1" parent="1">
          <mxGeometry x="1490" y="767" width="120" height="60" as="geometry" />
        </mxCell>
        <mxCell id="p7dw9C3AjrqsMlMxh2Bg-97" value="8" style="shape=process;whiteSpace=wrap;html=1;backgroundOutline=1;" vertex="1" parent="1">
          <mxGeometry x="980" y="767" width="120" height="60" as="geometry" />
        </mxCell>
        <mxCell id="p7dw9C3AjrqsMlMxh2Bg-98" value="" style="endArrow=none;html=1;rounded=0;" edge="1" parent="1">
          <mxGeometry width="50" height="50" relative="1" as="geometry">
            <mxPoint x="930" y="677" as="sourcePoint" />
            <mxPoint x="1650" y="677" as="targetPoint" />
          </mxGeometry>
        </mxCell>
        <mxCell id="p7dw9C3AjrqsMlMxh2Bg-102" value="12004/双重打击" style="rounded=1;whiteSpace=wrap;html=1;" vertex="1" parent="1">
          <mxGeometry x="720" y="1000" width="120" height="60" as="geometry" />
        </mxCell>
        <mxCell id="p7dw9C3AjrqsMlMxh2Bg-124" value="1" style="shape=process;whiteSpace=wrap;html=1;backgroundOutline=1;" vertex="1" parent="1">
          <mxGeometry x="360" y="910" width="120" height="60" as="geometry" />
        </mxCell>
        <mxCell id="p7dw9C3AjrqsMlMxh2Bg-125" value="2" style="shape=process;whiteSpace=wrap;html=1;backgroundOutline=1;" vertex="1" parent="1">
          <mxGeometry x="540" y="910" width="120" height="60" as="geometry" />
        </mxCell>
        <mxCell id="p7dw9C3AjrqsMlMxh2Bg-126" value="3" style="shape=process;whiteSpace=wrap;html=1;backgroundOutline=1;" vertex="1" parent="1">
          <mxGeometry x="720" y="910" width="120" height="60" as="geometry" />
        </mxCell>
        <mxCell id="p7dw9C3AjrqsMlMxh2Bg-127" value="1" style="shape=process;whiteSpace=wrap;html=1;backgroundOutline=1;" vertex="1" parent="1">
          <mxGeometry x="210" y="1000" width="120" height="60" as="geometry" />
        </mxCell>
        <mxCell id="p7dw9C3AjrqsMlMxh2Bg-128" value="2" style="shape=process;whiteSpace=wrap;html=1;backgroundOutline=1;" vertex="1" parent="1">
          <mxGeometry x="210" y="1090" width="120" height="60" as="geometry" />
        </mxCell>
        <mxCell id="p7dw9C3AjrqsMlMxh2Bg-129" value="3" style="shape=process;whiteSpace=wrap;html=1;backgroundOutline=1;" vertex="1" parent="1">
          <mxGeometry x="210" y="1180" width="120" height="60" as="geometry" />
        </mxCell>
        <mxCell id="p7dw9C3AjrqsMlMxh2Bg-130" value="4" style="shape=process;whiteSpace=wrap;html=1;backgroundOutline=1;" vertex="1" parent="1">
          <mxGeometry x="210" y="1270" width="120" height="60" as="geometry" />
        </mxCell>
        <mxCell id="p7dw9C3AjrqsMlMxh2Bg-131" value="5" style="shape=process;whiteSpace=wrap;html=1;backgroundOutline=1;" vertex="1" parent="1">
          <mxGeometry x="210" y="1360" width="120" height="60" as="geometry" />
        </mxCell>
        <mxCell id="p7dw9C3AjrqsMlMxh2Bg-132" value="6" style="shape=process;whiteSpace=wrap;html=1;backgroundOutline=1;" vertex="1" parent="1">
          <mxGeometry x="210" y="1450" width="120" height="60" as="geometry" />
        </mxCell>
        <mxCell id="p7dw9C3AjrqsMlMxh2Bg-138" value="7" style="shape=process;whiteSpace=wrap;html=1;backgroundOutline=1;" vertex="1" parent="1">
          <mxGeometry x="210" y="1530" width="120" height="60" as="geometry" />
        </mxCell>
        <mxCell id="p7dw9C3AjrqsMlMxh2Bg-142" value="8" style="shape=process;whiteSpace=wrap;html=1;backgroundOutline=1;" vertex="1" parent="1">
          <mxGeometry x="210" y="1610" width="120" height="60" as="geometry" />
        </mxCell>
        <mxCell id="p7dw9C3AjrqsMlMxh2Bg-206" style="edgeStyle=orthogonalEdgeStyle;rounded=0;orthogonalLoop=1;jettySize=auto;html=1;exitX=1;exitY=0.5;exitDx=0;exitDy=0;entryX=0;entryY=0.5;entryDx=0;entryDy=0;" edge="1" parent="1" source="p7dw9C3AjrqsMlMxh2Bg-143" target="p7dw9C3AjrqsMlMxh2Bg-144">
          <mxGeometry relative="1" as="geometry" />
        </mxCell>
        <mxCell id="p7dw9C3AjrqsMlMxh2Bg-207" style="edgeStyle=orthogonalEdgeStyle;rounded=0;orthogonalLoop=1;jettySize=auto;html=1;exitX=1;exitY=0.5;exitDx=0;exitDy=0;entryX=0;entryY=0.5;entryDx=0;entryDy=0;" edge="1" parent="1" source="p7dw9C3AjrqsMlMxh2Bg-143" target="p7dw9C3AjrqsMlMxh2Bg-147">
          <mxGeometry relative="1" as="geometry" />
        </mxCell>
        <mxCell id="p7dw9C3AjrqsMlMxh2Bg-143" value="12001/跳劈" style="rounded=1;whiteSpace=wrap;html=1;" vertex="1" parent="1">
          <mxGeometry x="360" y="1000" width="120" height="60" as="geometry" />
        </mxCell>
        <mxCell id="p7dw9C3AjrqsMlMxh2Bg-208" style="edgeStyle=orthogonalEdgeStyle;rounded=0;orthogonalLoop=1;jettySize=auto;html=1;exitX=1;exitY=0.5;exitDx=0;exitDy=0;" edge="1" parent="1" source="p7dw9C3AjrqsMlMxh2Bg-144" target="p7dw9C3AjrqsMlMxh2Bg-102">
          <mxGeometry relative="1" as="geometry" />
        </mxCell>
        <mxCell id="p7dw9C3AjrqsMlMxh2Bg-144" value="12002/升龙斩" style="rounded=1;whiteSpace=wrap;html=1;" vertex="1" parent="1">
          <mxGeometry x="540" y="1000" width="120" height="60" as="geometry" />
        </mxCell>
        <mxCell id="p7dw9C3AjrqsMlMxh2Bg-145" value="12005/大地震击" style="rounded=1;whiteSpace=wrap;html=1;" vertex="1" parent="1">
          <mxGeometry x="720" y="1090" width="120" height="60" as="geometry" />
        </mxCell>
        <mxCell id="p7dw9C3AjrqsMlMxh2Bg-146" value="" style="rounded=1;whiteSpace=wrap;html=1;" vertex="1" parent="1">
          <mxGeometry x="360" y="1090" width="120" height="60" as="geometry" />
        </mxCell>
        <mxCell id="p7dw9C3AjrqsMlMxh2Bg-209" style="edgeStyle=orthogonalEdgeStyle;rounded=0;orthogonalLoop=1;jettySize=auto;html=1;exitX=1;exitY=0.5;exitDx=0;exitDy=0;entryX=0;entryY=0.5;entryDx=0;entryDy=0;" edge="1" parent="1" source="p7dw9C3AjrqsMlMxh2Bg-147" target="p7dw9C3AjrqsMlMxh2Bg-145">
          <mxGeometry relative="1" as="geometry" />
        </mxCell>
        <mxCell id="p7dw9C3AjrqsMlMxh2Bg-147" value="12003/肆虐风暴" style="rounded=1;whiteSpace=wrap;html=1;" vertex="1" parent="1">
          <mxGeometry x="540" y="1090" width="120" height="60" as="geometry" />
        </mxCell>
        <mxCell id="p7dw9C3AjrqsMlMxh2Bg-148" value="12007/沉重打击" style="rounded=1;whiteSpace=wrap;html=1;" vertex="1" parent="1">
          <mxGeometry x="720" y="1180" width="120" height="60" as="geometry" />
        </mxCell>
        <mxCell id="p7dw9C3AjrqsMlMxh2Bg-210" style="edgeStyle=orthogonalEdgeStyle;rounded=0;orthogonalLoop=1;jettySize=auto;html=1;exitX=1;exitY=0.5;exitDx=0;exitDy=0;entryX=0;entryY=0.5;entryDx=0;entryDy=0;" edge="1" parent="1" source="p7dw9C3AjrqsMlMxh2Bg-149" target="p7dw9C3AjrqsMlMxh2Bg-148">
          <mxGeometry relative="1" as="geometry" />
        </mxCell>
        <mxCell id="p7dw9C3AjrqsMlMxh2Bg-149" value="12006/旋风斩" style="rounded=1;whiteSpace=wrap;html=1;" vertex="1" parent="1">
          <mxGeometry x="360" y="1180" width="120" height="60" as="geometry" />
        </mxCell>
        <mxCell id="p7dw9C3AjrqsMlMxh2Bg-150" value="" style="rounded=1;whiteSpace=wrap;html=1;" vertex="1" parent="1">
          <mxGeometry x="540" y="1180" width="120" height="60" as="geometry" />
        </mxCell>
        <mxCell id="p7dw9C3AjrqsMlMxh2Bg-151" value="12010/武器狂暴" style="rounded=1;whiteSpace=wrap;html=1;" vertex="1" parent="1">
          <mxGeometry x="720" y="1270" width="120" height="60" as="geometry" />
        </mxCell>
        <mxCell id="p7dw9C3AjrqsMlMxh2Bg-211" style="edgeStyle=orthogonalEdgeStyle;rounded=0;orthogonalLoop=1;jettySize=auto;html=1;exitX=1;exitY=0.5;exitDx=0;exitDy=0;entryX=0;entryY=0.5;entryDx=0;entryDy=0;" edge="1" parent="1" source="p7dw9C3AjrqsMlMxh2Bg-152" target="p7dw9C3AjrqsMlMxh2Bg-153">
          <mxGeometry relative="1" as="geometry" />
        </mxCell>
        <mxCell id="p7dw9C3AjrqsMlMxh2Bg-152" value="12008/刺击" style="rounded=1;whiteSpace=wrap;html=1;" vertex="1" parent="1">
          <mxGeometry x="360" y="1270" width="120" height="60" as="geometry" />
        </mxCell>
        <mxCell id="p7dw9C3AjrqsMlMxh2Bg-212" style="edgeStyle=orthogonalEdgeStyle;rounded=0;orthogonalLoop=1;jettySize=auto;html=1;exitX=1;exitY=0.5;exitDx=0;exitDy=0;entryX=0;entryY=0.5;entryDx=0;entryDy=0;" edge="1" parent="1" source="p7dw9C3AjrqsMlMxh2Bg-153" target="p7dw9C3AjrqsMlMxh2Bg-151">
          <mxGeometry relative="1" as="geometry" />
        </mxCell>
        <mxCell id="p7dw9C3AjrqsMlMxh2Bg-213" style="edgeStyle=orthogonalEdgeStyle;rounded=0;orthogonalLoop=1;jettySize=auto;html=1;exitX=1;exitY=0.5;exitDx=0;exitDy=0;entryX=0;entryY=0.5;entryDx=0;entryDy=0;" edge="1" parent="1" source="p7dw9C3AjrqsMlMxh2Bg-153" target="p7dw9C3AjrqsMlMxh2Bg-154">
          <mxGeometry relative="1" as="geometry" />
        </mxCell>
        <mxCell id="p7dw9C3AjrqsMlMxh2Bg-153" value="12009/屠龙者咆哮" style="rounded=1;whiteSpace=wrap;html=1;" vertex="1" parent="1">
          <mxGeometry x="540" y="1270" width="120" height="60" as="geometry" />
        </mxCell>
        <mxCell id="p7dw9C3AjrqsMlMxh2Bg-154" value="12011/野性挥舞" style="rounded=1;whiteSpace=wrap;html=1;" vertex="1" parent="1">
          <mxGeometry x="720" y="1360" width="120" height="60" as="geometry" />
        </mxCell>
        <mxCell id="p7dw9C3AjrqsMlMxh2Bg-155" value="" style="rounded=1;whiteSpace=wrap;html=1;" vertex="1" parent="1">
          <mxGeometry x="360" y="1360" width="120" height="60" as="geometry" />
        </mxCell>
        <mxCell id="p7dw9C3AjrqsMlMxh2Bg-156" value="" style="rounded=1;whiteSpace=wrap;html=1;" vertex="1" parent="1">
          <mxGeometry x="540" y="1360" width="120" height="60" as="geometry" />
        </mxCell>
        <mxCell id="p7dw9C3AjrqsMlMxh2Bg-157" value="13001/残忍静默" style="rounded=1;whiteSpace=wrap;html=1;" vertex="1" parent="1">
          <mxGeometry x="720" y="1450" width="120" height="60" as="geometry" />
        </mxCell>
        <mxCell id="p7dw9C3AjrqsMlMxh2Bg-214" style="edgeStyle=orthogonalEdgeStyle;rounded=0;orthogonalLoop=1;jettySize=auto;html=1;exitX=1;exitY=0.5;exitDx=0;exitDy=0;entryX=0;entryY=0.5;entryDx=0;entryDy=0;" edge="1" parent="1" source="p7dw9C3AjrqsMlMxh2Bg-158" target="p7dw9C3AjrqsMlMxh2Bg-159">
          <mxGeometry relative="1" as="geometry" />
        </mxCell>
        <mxCell id="p7dw9C3AjrqsMlMxh2Bg-215" style="edgeStyle=orthogonalEdgeStyle;rounded=0;orthogonalLoop=1;jettySize=auto;html=1;exitX=1;exitY=0.5;exitDx=0;exitDy=0;entryX=0;entryY=0.5;entryDx=0;entryDy=0;" edge="1" parent="1" source="p7dw9C3AjrqsMlMxh2Bg-158" target="p7dw9C3AjrqsMlMxh2Bg-162">
          <mxGeometry relative="1" as="geometry" />
        </mxCell>
        <mxCell id="p7dw9C3AjrqsMlMxh2Bg-158" value="12012/野性狂暴" style="rounded=1;whiteSpace=wrap;html=1;" vertex="1" parent="1">
          <mxGeometry x="360" y="1450" width="120" height="60" as="geometry" />
        </mxCell>
        <mxCell id="p7dw9C3AjrqsMlMxh2Bg-216" style="edgeStyle=orthogonalEdgeStyle;rounded=0;orthogonalLoop=1;jettySize=auto;html=1;exitX=1;exitY=0.5;exitDx=0;exitDy=0;entryX=0;entryY=0.5;entryDx=0;entryDy=0;" edge="1" parent="1" source="p7dw9C3AjrqsMlMxh2Bg-159" target="p7dw9C3AjrqsMlMxh2Bg-157">
          <mxGeometry relative="1" as="geometry" />
        </mxCell>
        <mxCell id="p7dw9C3AjrqsMlMxh2Bg-159" value="12013/野性怒吼" style="rounded=1;whiteSpace=wrap;html=1;" vertex="1" parent="1">
          <mxGeometry x="540" y="1450" width="120" height="60" as="geometry" />
        </mxCell>
        <mxCell id="p7dw9C3AjrqsMlMxh2Bg-160" value="13002/地狱领主的咆哮" style="rounded=1;whiteSpace=wrap;html=1;" vertex="1" parent="1">
          <mxGeometry x="720" y="1530" width="120" height="60" as="geometry" />
        </mxCell>
        <mxCell id="p7dw9C3AjrqsMlMxh2Bg-161" value="" style="rounded=1;whiteSpace=wrap;html=1;" vertex="1" parent="1">
          <mxGeometry x="360" y="1530" width="120" height="60" as="geometry" />
        </mxCell>
        <mxCell id="p7dw9C3AjrqsMlMxh2Bg-217" style="edgeStyle=orthogonalEdgeStyle;rounded=0;orthogonalLoop=1;jettySize=auto;html=1;exitX=1;exitY=0.5;exitDx=0;exitDy=0;entryX=0;entryY=0.5;entryDx=0;entryDy=0;" edge="1" parent="1" source="p7dw9C3AjrqsMlMxh2Bg-162" target="p7dw9C3AjrqsMlMxh2Bg-160">
          <mxGeometry relative="1" as="geometry" />
        </mxCell>
        <mxCell id="p7dw9C3AjrqsMlMxh2Bg-162" value="12014/绝地反击" style="rounded=1;whiteSpace=wrap;html=1;" vertex="1" parent="1">
          <mxGeometry x="540" y="1530" width="120" height="60" as="geometry" />
        </mxCell>
        <mxCell id="p7dw9C3AjrqsMlMxh2Bg-163" value="14002/生命激活" style="rounded=1;whiteSpace=wrap;html=1;" vertex="1" parent="1">
          <mxGeometry x="720" y="1610" width="120" height="60" as="geometry" />
        </mxCell>
        <mxCell id="p7dw9C3AjrqsMlMxh2Bg-218" style="edgeStyle=orthogonalEdgeStyle;rounded=0;orthogonalLoop=1;jettySize=auto;html=1;exitX=1;exitY=0.5;exitDx=0;exitDy=0;entryX=0;entryY=0.5;entryDx=0;entryDy=0;" edge="1" parent="1" source="p7dw9C3AjrqsMlMxh2Bg-164" target="p7dw9C3AjrqsMlMxh2Bg-165">
          <mxGeometry relative="1" as="geometry" />
        </mxCell>
        <mxCell id="p7dw9C3AjrqsMlMxh2Bg-164" value="13003/女王的号令" style="rounded=1;whiteSpace=wrap;html=1;" vertex="1" parent="1">
          <mxGeometry x="360" y="1610" width="120" height="60" as="geometry" />
        </mxCell>
        <mxCell id="p7dw9C3AjrqsMlMxh2Bg-219" style="edgeStyle=orthogonalEdgeStyle;rounded=0;orthogonalLoop=1;jettySize=auto;html=1;exitX=1;exitY=0.5;exitDx=0;exitDy=0;entryX=0;entryY=0.5;entryDx=0;entryDy=0;" edge="1" parent="1" source="p7dw9C3AjrqsMlMxh2Bg-165" target="p7dw9C3AjrqsMlMxh2Bg-163">
          <mxGeometry relative="1" as="geometry" />
        </mxCell>
        <mxCell id="p7dw9C3AjrqsMlMxh2Bg-165" value="14001/集中" style="rounded=1;whiteSpace=wrap;html=1;" vertex="1" parent="1">
          <mxGeometry x="540" y="1610" width="120" height="60" as="geometry" />
        </mxCell>
        <mxCell id="p7dw9C3AjrqsMlMxh2Bg-166" value="9" style="shape=process;whiteSpace=wrap;html=1;backgroundOutline=1;" vertex="1" parent="1">
          <mxGeometry x="210" y="1690" width="120" height="60" as="geometry" />
        </mxCell>
        <mxCell id="p7dw9C3AjrqsMlMxh2Bg-167" value="" style="rounded=1;whiteSpace=wrap;html=1;" vertex="1" parent="1">
          <mxGeometry x="720" y="1690" width="120" height="60" as="geometry" />
        </mxCell>
        <mxCell id="p7dw9C3AjrqsMlMxh2Bg-220" style="edgeStyle=orthogonalEdgeStyle;rounded=0;orthogonalLoop=1;jettySize=auto;html=1;exitX=1;exitY=0.5;exitDx=0;exitDy=0;" edge="1" parent="1" source="p7dw9C3AjrqsMlMxh2Bg-168" target="p7dw9C3AjrqsMlMxh2Bg-169">
          <mxGeometry relative="1" as="geometry" />
        </mxCell>
        <mxCell id="p7dw9C3AjrqsMlMxh2Bg-168" value="14003/致命打击" style="rounded=1;whiteSpace=wrap;html=1;" vertex="1" parent="1">
          <mxGeometry x="360" y="1690" width="120" height="60" as="geometry" />
        </mxCell>
        <mxCell id="p7dw9C3AjrqsMlMxh2Bg-169" value="14004/统御" style="rounded=1;whiteSpace=wrap;html=1;" vertex="1" parent="1">
          <mxGeometry x="540" y="1690" width="120" height="60" as="geometry" />
        </mxCell>
        <mxCell id="p7dw9C3AjrqsMlMxh2Bg-170" value="10" style="shape=process;whiteSpace=wrap;html=1;backgroundOutline=1;" vertex="1" parent="1">
          <mxGeometry x="210" y="1770" width="120" height="60" as="geometry" />
        </mxCell>
        <mxCell id="p7dw9C3AjrqsMlMxh2Bg-171" value="16001/回城术" style="rounded=1;whiteSpace=wrap;html=1;" vertex="1" parent="1">
          <mxGeometry x="720" y="1770" width="120" height="60" as="geometry" />
        </mxCell>
        <mxCell id="p7dw9C3AjrqsMlMxh2Bg-221" style="edgeStyle=orthogonalEdgeStyle;rounded=0;orthogonalLoop=1;jettySize=auto;html=1;" edge="1" parent="1" source="p7dw9C3AjrqsMlMxh2Bg-172" target="p7dw9C3AjrqsMlMxh2Bg-173">
          <mxGeometry relative="1" as="geometry" />
        </mxCell>
        <mxCell id="p7dw9C3AjrqsMlMxh2Bg-222" style="edgeStyle=orthogonalEdgeStyle;rounded=0;orthogonalLoop=1;jettySize=auto;html=1;exitX=1;exitY=0.5;exitDx=0;exitDy=0;entryX=0;entryY=0.5;entryDx=0;entryDy=0;" edge="1" parent="1" source="p7dw9C3AjrqsMlMxh2Bg-172" target="p7dw9C3AjrqsMlMxh2Bg-177">
          <mxGeometry relative="1" as="geometry" />
        </mxCell>
        <mxCell id="p7dw9C3AjrqsMlMxh2Bg-172" value="14005/鹰眼" style="rounded=1;whiteSpace=wrap;html=1;" vertex="1" parent="1">
          <mxGeometry x="360" y="1770" width="120" height="60" as="geometry" />
        </mxCell>
        <mxCell id="p7dw9C3AjrqsMlMxh2Bg-223" style="edgeStyle=orthogonalEdgeStyle;rounded=0;orthogonalLoop=1;jettySize=auto;html=1;exitX=1;exitY=0.5;exitDx=0;exitDy=0;" edge="1" parent="1" source="p7dw9C3AjrqsMlMxh2Bg-173" target="p7dw9C3AjrqsMlMxh2Bg-171">
          <mxGeometry relative="1" as="geometry" />
        </mxCell>
        <mxCell id="p7dw9C3AjrqsMlMxh2Bg-173" value="14006/活力支配" style="rounded=1;whiteSpace=wrap;html=1;" vertex="1" parent="1">
          <mxGeometry x="540" y="1770" width="120" height="60" as="geometry" />
        </mxCell>
        <mxCell id="p7dw9C3AjrqsMlMxh2Bg-174" value="11" style="shape=process;whiteSpace=wrap;html=1;backgroundOutline=1;" vertex="1" parent="1">
          <mxGeometry x="210" y="1850" width="120" height="60" as="geometry" />
        </mxCell>
        <mxCell id="p7dw9C3AjrqsMlMxh2Bg-175" value="16002/技能传送" style="rounded=1;whiteSpace=wrap;html=1;" vertex="1" parent="1">
          <mxGeometry x="720" y="1850" width="120" height="60" as="geometry" />
        </mxCell>
        <mxCell id="p7dw9C3AjrqsMlMxh2Bg-176" value="" style="rounded=1;whiteSpace=wrap;html=1;" vertex="1" parent="1">
          <mxGeometry x="360" y="1850" width="120" height="60" as="geometry" />
        </mxCell>
        <mxCell id="p7dw9C3AjrqsMlMxh2Bg-224" style="edgeStyle=orthogonalEdgeStyle;rounded=0;orthogonalLoop=1;jettySize=auto;html=1;exitX=1;exitY=0.5;exitDx=0;exitDy=0;" edge="1" parent="1" source="p7dw9C3AjrqsMlMxh2Bg-177" target="p7dw9C3AjrqsMlMxh2Bg-175">
          <mxGeometry relative="1" as="geometry" />
        </mxCell>
        <mxCell id="p7dw9C3AjrqsMlMxh2Bg-177" value="15001/污染蔓延" style="rounded=1;whiteSpace=wrap;html=1;" vertex="1" parent="1">
          <mxGeometry x="540" y="1850" width="120" height="60" as="geometry" />
        </mxCell>
        <mxCell id="p7dw9C3AjrqsMlMxh2Bg-178" value="12" style="shape=process;whiteSpace=wrap;html=1;backgroundOutline=1;" vertex="1" parent="1">
          <mxGeometry x="210" y="1930" width="120" height="60" as="geometry" />
        </mxCell>
        <mxCell id="p7dw9C3AjrqsMlMxh2Bg-179" value="17001/召唤坐骑" style="rounded=1;whiteSpace=wrap;html=1;" vertex="1" parent="1">
          <mxGeometry x="720" y="1930" width="120" height="60" as="geometry" />
        </mxCell>
        <mxCell id="p7dw9C3AjrqsMlMxh2Bg-225" style="edgeStyle=orthogonalEdgeStyle;rounded=0;orthogonalLoop=1;jettySize=auto;html=1;exitX=1;exitY=0.5;exitDx=0;exitDy=0;entryX=0;entryY=0.5;entryDx=0;entryDy=0;" edge="1" parent="1" source="p7dw9C3AjrqsMlMxh2Bg-180" target="p7dw9C3AjrqsMlMxh2Bg-181">
          <mxGeometry relative="1" as="geometry" />
        </mxCell>
        <mxCell id="p7dw9C3AjrqsMlMxh2Bg-180" value="16003/传送门" style="rounded=1;whiteSpace=wrap;html=1;" vertex="1" parent="1">
          <mxGeometry x="360" y="1930" width="120" height="60" as="geometry" />
        </mxCell>
        <mxCell id="p7dw9C3AjrqsMlMxh2Bg-226" style="edgeStyle=orthogonalEdgeStyle;rounded=0;orthogonalLoop=1;jettySize=auto;html=1;exitX=1;exitY=0.5;exitDx=0;exitDy=0;entryX=0;entryY=0.5;entryDx=0;entryDy=0;" edge="1" parent="1" source="p7dw9C3AjrqsMlMxh2Bg-181" target="p7dw9C3AjrqsMlMxh2Bg-179">
          <mxGeometry relative="1" as="geometry" />
        </mxCell>
        <mxCell id="p7dw9C3AjrqsMlMxh2Bg-181" value="16004/战场boss传送" style="rounded=1;whiteSpace=wrap;html=1;" vertex="1" parent="1">
          <mxGeometry x="540" y="1930" width="120" height="60" as="geometry" />
        </mxCell>
        <mxCell id="p7dw9C3AjrqsMlMxh2Bg-182" value="13" style="shape=process;whiteSpace=wrap;html=1;backgroundOutline=1;" vertex="1" parent="1">
          <mxGeometry x="210" y="2000" width="120" height="60" as="geometry" />
        </mxCell>
        <mxCell id="p7dw9C3AjrqsMlMxh2Bg-183" value="" style="rounded=1;whiteSpace=wrap;html=1;" vertex="1" parent="1">
          <mxGeometry x="720" y="2000" width="120" height="60" as="geometry" />
        </mxCell>
        <mxCell id="p7dw9C3AjrqsMlMxh2Bg-184" value="" style="rounded=1;whiteSpace=wrap;html=1;" vertex="1" parent="1">
          <mxGeometry x="360" y="2000" width="120" height="60" as="geometry" />
        </mxCell>
        <mxCell id="p7dw9C3AjrqsMlMxh2Bg-185" value="" style="rounded=1;whiteSpace=wrap;html=1;" vertex="1" parent="1">
          <mxGeometry x="540" y="2000" width="120" height="60" as="geometry" />
        </mxCell>
        <mxCell id="p7dw9C3AjrqsMlMxh2Bg-186" value="14" style="shape=process;whiteSpace=wrap;html=1;backgroundOutline=1;" vertex="1" parent="1">
          <mxGeometry x="210" y="2080" width="120" height="60" as="geometry" />
        </mxCell>
        <mxCell id="p7dw9C3AjrqsMlMxh2Bg-187" value="" style="rounded=1;whiteSpace=wrap;html=1;" vertex="1" parent="1">
          <mxGeometry x="720" y="2080" width="120" height="60" as="geometry" />
        </mxCell>
        <mxCell id="p7dw9C3AjrqsMlMxh2Bg-188" value="" style="rounded=1;whiteSpace=wrap;html=1;" vertex="1" parent="1">
          <mxGeometry x="360" y="2080" width="120" height="60" as="geometry" />
        </mxCell>
        <mxCell id="p7dw9C3AjrqsMlMxh2Bg-189" value="" style="rounded=1;whiteSpace=wrap;html=1;" vertex="1" parent="1">
          <mxGeometry x="540" y="2080" width="120" height="60" as="geometry" />
        </mxCell>
        <mxCell id="p7dw9C3AjrqsMlMxh2Bg-190" value="15" style="shape=process;whiteSpace=wrap;html=1;backgroundOutline=1;" vertex="1" parent="1">
          <mxGeometry x="210" y="2160" width="120" height="60" as="geometry" />
        </mxCell>
        <mxCell id="p7dw9C3AjrqsMlMxh2Bg-191" value="" style="rounded=1;whiteSpace=wrap;html=1;" vertex="1" parent="1">
          <mxGeometry x="720" y="2160" width="120" height="60" as="geometry" />
        </mxCell>
        <mxCell id="p7dw9C3AjrqsMlMxh2Bg-192" value="" style="rounded=1;whiteSpace=wrap;html=1;" vertex="1" parent="1">
          <mxGeometry x="360" y="2160" width="120" height="60" as="geometry" />
        </mxCell>
        <mxCell id="p7dw9C3AjrqsMlMxh2Bg-193" value="" style="rounded=1;whiteSpace=wrap;html=1;" vertex="1" parent="1">
          <mxGeometry x="540" y="2160" width="120" height="60" as="geometry" />
        </mxCell>
        <mxCell id="p7dw9C3AjrqsMlMxh2Bg-194" value="16" style="shape=process;whiteSpace=wrap;html=1;backgroundOutline=1;" vertex="1" parent="1">
          <mxGeometry x="210" y="2240" width="120" height="60" as="geometry" />
        </mxCell>
        <mxCell id="p7dw9C3AjrqsMlMxh2Bg-195" value="" style="rounded=1;whiteSpace=wrap;html=1;" vertex="1" parent="1">
          <mxGeometry x="720" y="2240" width="120" height="60" as="geometry" />
        </mxCell>
        <mxCell id="p7dw9C3AjrqsMlMxh2Bg-196" value="" style="rounded=1;whiteSpace=wrap;html=1;" vertex="1" parent="1">
          <mxGeometry x="360" y="2240" width="120" height="60" as="geometry" />
        </mxCell>
        <mxCell id="p7dw9C3AjrqsMlMxh2Bg-197" value="" style="rounded=1;whiteSpace=wrap;html=1;" vertex="1" parent="1">
          <mxGeometry x="540" y="2240" width="120" height="60" as="geometry" />
        </mxCell>
        <mxCell id="p7dw9C3AjrqsMlMxh2Bg-198" value="17" style="shape=process;whiteSpace=wrap;html=1;backgroundOutline=1;" vertex="1" parent="1">
          <mxGeometry x="210" y="2320" width="120" height="60" as="geometry" />
        </mxCell>
        <mxCell id="p7dw9C3AjrqsMlMxh2Bg-199" value="46001/传送石" style="rounded=1;whiteSpace=wrap;html=1;" vertex="1" parent="1">
          <mxGeometry x="720" y="2320" width="120" height="60" as="geometry" />
        </mxCell>
        <mxCell id="p7dw9C3AjrqsMlMxh2Bg-200" value="20009/狂暴" style="rounded=1;whiteSpace=wrap;html=1;" vertex="1" parent="1">
          <mxGeometry x="360" y="2320" width="120" height="60" as="geometry" />
        </mxCell>
        <mxCell id="p7dw9C3AjrqsMlMxh2Bg-201" value="" style="rounded=1;whiteSpace=wrap;html=1;" vertex="1" parent="1">
          <mxGeometry x="540" y="2320" width="120" height="60" as="geometry" />
        </mxCell>
        <mxCell id="p7dw9C3AjrqsMlMxh2Bg-227" value="" style="rounded=1;whiteSpace=wrap;html=1;" vertex="1" parent="1">
          <mxGeometry x="1610" y="1000" width="120" height="60" as="geometry" />
        </mxCell>
        <mxCell id="p7dw9C3AjrqsMlMxh2Bg-228" value="1" style="shape=process;whiteSpace=wrap;html=1;backgroundOutline=1;" vertex="1" parent="1">
          <mxGeometry x="1250" y="910" width="120" height="60" as="geometry" />
        </mxCell>
        <mxCell id="p7dw9C3AjrqsMlMxh2Bg-229" value="2" style="shape=process;whiteSpace=wrap;html=1;backgroundOutline=1;" vertex="1" parent="1">
          <mxGeometry x="1430" y="910" width="120" height="60" as="geometry" />
        </mxCell>
        <mxCell id="p7dw9C3AjrqsMlMxh2Bg-230" value="3" style="shape=process;whiteSpace=wrap;html=1;backgroundOutline=1;" vertex="1" parent="1">
          <mxGeometry x="1610" y="910" width="120" height="60" as="geometry" />
        </mxCell>
        <mxCell id="p7dw9C3AjrqsMlMxh2Bg-231" value="1" style="shape=process;whiteSpace=wrap;html=1;backgroundOutline=1;" vertex="1" parent="1">
          <mxGeometry x="1100" y="1000" width="120" height="60" as="geometry" />
        </mxCell>
        <mxCell id="p7dw9C3AjrqsMlMxh2Bg-232" value="2" style="shape=process;whiteSpace=wrap;html=1;backgroundOutline=1;" vertex="1" parent="1">
          <mxGeometry x="1100" y="1090" width="120" height="60" as="geometry" />
        </mxCell>
        <mxCell id="p7dw9C3AjrqsMlMxh2Bg-233" value="3" style="shape=process;whiteSpace=wrap;html=1;backgroundOutline=1;" vertex="1" parent="1">
          <mxGeometry x="1100" y="1180" width="120" height="60" as="geometry" />
        </mxCell>
        <mxCell id="p7dw9C3AjrqsMlMxh2Bg-234" value="4" style="shape=process;whiteSpace=wrap;html=1;backgroundOutline=1;" vertex="1" parent="1">
          <mxGeometry x="1100" y="1270" width="120" height="60" as="geometry" />
        </mxCell>
        <mxCell id="p7dw9C3AjrqsMlMxh2Bg-235" value="5" style="shape=process;whiteSpace=wrap;html=1;backgroundOutline=1;" vertex="1" parent="1">
          <mxGeometry x="1100" y="1360" width="120" height="60" as="geometry" />
        </mxCell>
        <mxCell id="p7dw9C3AjrqsMlMxh2Bg-236" value="6" style="shape=process;whiteSpace=wrap;html=1;backgroundOutline=1;" vertex="1" parent="1">
          <mxGeometry x="1100" y="1450" width="120" height="60" as="geometry" />
        </mxCell>
        <mxCell id="p7dw9C3AjrqsMlMxh2Bg-237" value="7" style="shape=process;whiteSpace=wrap;html=1;backgroundOutline=1;" vertex="1" parent="1">
          <mxGeometry x="1100" y="1540" width="120" height="60" as="geometry" />
        </mxCell>
        <mxCell id="p7dw9C3AjrqsMlMxh2Bg-238" value="8" style="shape=process;whiteSpace=wrap;html=1;backgroundOutline=1;" vertex="1" parent="1">
          <mxGeometry x="1100" y="1630" width="120" height="60" as="geometry" />
        </mxCell>
        <mxCell id="p7dw9C3AjrqsMlMxh2Bg-241" value="" style="rounded=1;whiteSpace=wrap;html=1;" vertex="1" parent="1">
          <mxGeometry x="1250" y="1000" width="120" height="60" as="geometry" />
        </mxCell>
        <mxCell id="p7dw9C3AjrqsMlMxh2Bg-243" value="" style="rounded=1;whiteSpace=wrap;html=1;" vertex="1" parent="1">
          <mxGeometry x="1430" y="1000" width="120" height="60" as="geometry" />
        </mxCell>
        <mxCell id="p7dw9C3AjrqsMlMxh2Bg-244" value="" style="rounded=1;whiteSpace=wrap;html=1;" vertex="1" parent="1">
          <mxGeometry x="1610" y="1090" width="120" height="60" as="geometry" />
        </mxCell>
        <mxCell id="p7dw9C3AjrqsMlMxh2Bg-245" value="" style="rounded=1;whiteSpace=wrap;html=1;" vertex="1" parent="1">
          <mxGeometry x="1250" y="1090" width="120" height="60" as="geometry" />
        </mxCell>
        <mxCell id="p7dw9C3AjrqsMlMxh2Bg-247" value="" style="rounded=1;whiteSpace=wrap;html=1;" vertex="1" parent="1">
          <mxGeometry x="1430" y="1090" width="120" height="60" as="geometry" />
        </mxCell>
        <mxCell id="p7dw9C3AjrqsMlMxh2Bg-276" value="9" style="shape=process;whiteSpace=wrap;html=1;backgroundOutline=1;" vertex="1" parent="1">
          <mxGeometry x="1100" y="1710" width="120" height="60" as="geometry" />
        </mxCell>
        <mxCell id="p7dw9C3AjrqsMlMxh2Bg-281" value="10" style="shape=process;whiteSpace=wrap;html=1;backgroundOutline=1;" vertex="1" parent="1">
          <mxGeometry x="1100" y="1790" width="120" height="60" as="geometry" />
        </mxCell>
        <mxCell id="p7dw9C3AjrqsMlMxh2Bg-288" value="11" style="shape=process;whiteSpace=wrap;html=1;backgroundOutline=1;" vertex="1" parent="1">
          <mxGeometry x="1100" y="1870" width="120" height="60" as="geometry" />
        </mxCell>
        <mxCell id="p7dw9C3AjrqsMlMxh2Bg-293" value="12" style="shape=process;whiteSpace=wrap;html=1;backgroundOutline=1;" vertex="1" parent="1">
          <mxGeometry x="1100" y="1950" width="120" height="60" as="geometry" />
        </mxCell>
        <mxCell id="p7dw9C3AjrqsMlMxh2Bg-299" value="13" style="shape=process;whiteSpace=wrap;html=1;backgroundOutline=1;" vertex="1" parent="1">
          <mxGeometry x="1100" y="2020" width="120" height="60" as="geometry" />
        </mxCell>
        <mxCell id="p7dw9C3AjrqsMlMxh2Bg-303" value="14" style="shape=process;whiteSpace=wrap;html=1;backgroundOutline=1;" vertex="1" parent="1">
          <mxGeometry x="1100" y="2100" width="120" height="60" as="geometry" />
        </mxCell>
        <mxCell id="p7dw9C3AjrqsMlMxh2Bg-307" value="15" style="shape=process;whiteSpace=wrap;html=1;backgroundOutline=1;" vertex="1" parent="1">
          <mxGeometry x="1100" y="2180" width="120" height="60" as="geometry" />
        </mxCell>
        <mxCell id="p7dw9C3AjrqsMlMxh2Bg-311" value="16" style="shape=process;whiteSpace=wrap;html=1;backgroundOutline=1;" vertex="1" parent="1">
          <mxGeometry x="1100" y="2260" width="120" height="60" as="geometry" />
        </mxCell>
        <mxCell id="p7dw9C3AjrqsMlMxh2Bg-315" value="17" style="shape=process;whiteSpace=wrap;html=1;backgroundOutline=1;" vertex="1" parent="1">
          <mxGeometry x="1100" y="2340" width="120" height="60" as="geometry" />
        </mxCell>
        <mxCell id="p7dw9C3AjrqsMlMxh2Bg-319" value="" style="rounded=1;whiteSpace=wrap;html=1;" vertex="1" parent="1">
          <mxGeometry x="1610" y="1180" width="120" height="60" as="geometry" />
        </mxCell>
        <mxCell id="p7dw9C3AjrqsMlMxh2Bg-320" value="" style="rounded=1;whiteSpace=wrap;html=1;" vertex="1" parent="1">
          <mxGeometry x="1250" y="1180" width="120" height="60" as="geometry" />
        </mxCell>
        <mxCell id="p7dw9C3AjrqsMlMxh2Bg-321" value="" style="rounded=1;whiteSpace=wrap;html=1;" vertex="1" parent="1">
          <mxGeometry x="1430" y="1180" width="120" height="60" as="geometry" />
        </mxCell>
        <mxCell id="p7dw9C3AjrqsMlMxh2Bg-322" value="" style="rounded=1;whiteSpace=wrap;html=1;" vertex="1" parent="1">
          <mxGeometry x="1610" y="1270" width="120" height="60" as="geometry" />
        </mxCell>
        <mxCell id="p7dw9C3AjrqsMlMxh2Bg-323" value="" style="rounded=1;whiteSpace=wrap;html=1;" vertex="1" parent="1">
          <mxGeometry x="1250" y="1270" width="120" height="60" as="geometry" />
        </mxCell>
        <mxCell id="p7dw9C3AjrqsMlMxh2Bg-324" value="" style="rounded=1;whiteSpace=wrap;html=1;" vertex="1" parent="1">
          <mxGeometry x="1430" y="1270" width="120" height="60" as="geometry" />
        </mxCell>
        <mxCell id="p7dw9C3AjrqsMlMxh2Bg-325" value="" style="rounded=1;whiteSpace=wrap;html=1;" vertex="1" parent="1">
          <mxGeometry x="1610" y="1360" width="120" height="60" as="geometry" />
        </mxCell>
        <mxCell id="p7dw9C3AjrqsMlMxh2Bg-326" value="" style="rounded=1;whiteSpace=wrap;html=1;" vertex="1" parent="1">
          <mxGeometry x="1250" y="1360" width="120" height="60" as="geometry" />
        </mxCell>
        <mxCell id="p7dw9C3AjrqsMlMxh2Bg-327" value="" style="rounded=1;whiteSpace=wrap;html=1;" vertex="1" parent="1">
          <mxGeometry x="1430" y="1360" width="120" height="60" as="geometry" />
        </mxCell>
        <mxCell id="p7dw9C3AjrqsMlMxh2Bg-328" value="" style="rounded=1;whiteSpace=wrap;html=1;" vertex="1" parent="1">
          <mxGeometry x="1610" y="1450" width="120" height="60" as="geometry" />
        </mxCell>
        <mxCell id="p7dw9C3AjrqsMlMxh2Bg-329" value="" style="rounded=1;whiteSpace=wrap;html=1;" vertex="1" parent="1">
          <mxGeometry x="1250" y="1450" width="120" height="60" as="geometry" />
        </mxCell>
        <mxCell id="p7dw9C3AjrqsMlMxh2Bg-330" value="" style="rounded=1;whiteSpace=wrap;html=1;" vertex="1" parent="1">
          <mxGeometry x="1430" y="1450" width="120" height="60" as="geometry" />
        </mxCell>
        <mxCell id="p7dw9C3AjrqsMlMxh2Bg-331" value="" style="rounded=1;whiteSpace=wrap;html=1;" vertex="1" parent="1">
          <mxGeometry x="1610" y="1540" width="120" height="60" as="geometry" />
        </mxCell>
        <mxCell id="p7dw9C3AjrqsMlMxh2Bg-332" value="" style="rounded=1;whiteSpace=wrap;html=1;" vertex="1" parent="1">
          <mxGeometry x="1250" y="1540" width="120" height="60" as="geometry" />
        </mxCell>
        <mxCell id="p7dw9C3AjrqsMlMxh2Bg-333" value="" style="rounded=1;whiteSpace=wrap;html=1;" vertex="1" parent="1">
          <mxGeometry x="1430" y="1540" width="120" height="60" as="geometry" />
        </mxCell>
        <mxCell id="p7dw9C3AjrqsMlMxh2Bg-334" value="" style="rounded=1;whiteSpace=wrap;html=1;" vertex="1" parent="1">
          <mxGeometry x="1610" y="1630" width="120" height="60" as="geometry" />
        </mxCell>
        <mxCell id="p7dw9C3AjrqsMlMxh2Bg-335" value="" style="rounded=1;whiteSpace=wrap;html=1;" vertex="1" parent="1">
          <mxGeometry x="1250" y="1630" width="120" height="60" as="geometry" />
        </mxCell>
        <mxCell id="p7dw9C3AjrqsMlMxh2Bg-336" value="" style="rounded=1;whiteSpace=wrap;html=1;" vertex="1" parent="1">
          <mxGeometry x="1430" y="1630" width="120" height="60" as="geometry" />
        </mxCell>
        <mxCell id="p7dw9C3AjrqsMlMxh2Bg-361" value="" style="rounded=1;whiteSpace=wrap;html=1;" vertex="1" parent="1">
          <mxGeometry x="1610" y="1710" width="120" height="60" as="geometry" />
        </mxCell>
        <mxCell id="p7dw9C3AjrqsMlMxh2Bg-362" value="" style="rounded=1;whiteSpace=wrap;html=1;" vertex="1" parent="1">
          <mxGeometry x="1250" y="1710" width="120" height="60" as="geometry" />
        </mxCell>
        <mxCell id="p7dw9C3AjrqsMlMxh2Bg-363" value="" style="rounded=1;whiteSpace=wrap;html=1;" vertex="1" parent="1">
          <mxGeometry x="1430" y="1710" width="120" height="60" as="geometry" />
        </mxCell>
        <mxCell id="p7dw9C3AjrqsMlMxh2Bg-364" value="" style="rounded=1;whiteSpace=wrap;html=1;" vertex="1" parent="1">
          <mxGeometry x="1610" y="1790" width="120" height="60" as="geometry" />
        </mxCell>
        <mxCell id="p7dw9C3AjrqsMlMxh2Bg-365" value="" style="rounded=1;whiteSpace=wrap;html=1;" vertex="1" parent="1">
          <mxGeometry x="1250" y="1790" width="120" height="60" as="geometry" />
        </mxCell>
        <mxCell id="p7dw9C3AjrqsMlMxh2Bg-366" value="" style="rounded=1;whiteSpace=wrap;html=1;" vertex="1" parent="1">
          <mxGeometry x="1430" y="1790" width="120" height="60" as="geometry" />
        </mxCell>
        <mxCell id="p7dw9C3AjrqsMlMxh2Bg-367" value="" style="rounded=1;whiteSpace=wrap;html=1;" vertex="1" parent="1">
          <mxGeometry x="1610" y="1870" width="120" height="60" as="geometry" />
        </mxCell>
        <mxCell id="p7dw9C3AjrqsMlMxh2Bg-368" value="" style="rounded=1;whiteSpace=wrap;html=1;" vertex="1" parent="1">
          <mxGeometry x="1250" y="1870" width="120" height="60" as="geometry" />
        </mxCell>
        <mxCell id="p7dw9C3AjrqsMlMxh2Bg-369" value="" style="rounded=1;whiteSpace=wrap;html=1;" vertex="1" parent="1">
          <mxGeometry x="1430" y="1870" width="120" height="60" as="geometry" />
        </mxCell>
        <mxCell id="p7dw9C3AjrqsMlMxh2Bg-370" value="" style="rounded=1;whiteSpace=wrap;html=1;" vertex="1" parent="1">
          <mxGeometry x="1610" y="1950" width="120" height="60" as="geometry" />
        </mxCell>
        <mxCell id="p7dw9C3AjrqsMlMxh2Bg-371" value="" style="rounded=1;whiteSpace=wrap;html=1;" vertex="1" parent="1">
          <mxGeometry x="1250" y="1950" width="120" height="60" as="geometry" />
        </mxCell>
        <mxCell id="p7dw9C3AjrqsMlMxh2Bg-372" value="" style="rounded=1;whiteSpace=wrap;html=1;" vertex="1" parent="1">
          <mxGeometry x="1430" y="1950" width="120" height="60" as="geometry" />
        </mxCell>
        <mxCell id="p7dw9C3AjrqsMlMxh2Bg-373" value="" style="rounded=1;whiteSpace=wrap;html=1;" vertex="1" parent="1">
          <mxGeometry x="1610" y="2020" width="120" height="60" as="geometry" />
        </mxCell>
        <mxCell id="p7dw9C3AjrqsMlMxh2Bg-388" style="edgeStyle=orthogonalEdgeStyle;rounded=0;orthogonalLoop=1;jettySize=auto;html=1;exitX=1;exitY=0.5;exitDx=0;exitDy=0;entryX=0;entryY=0.5;entryDx=0;entryDy=0;" edge="1" parent="1" source="p7dw9C3AjrqsMlMxh2Bg-374" target="p7dw9C3AjrqsMlMxh2Bg-375">
          <mxGeometry relative="1" as="geometry" />
        </mxCell>
        <mxCell id="p7dw9C3AjrqsMlMxh2Bg-389" style="edgeStyle=orthogonalEdgeStyle;rounded=0;orthogonalLoop=1;jettySize=auto;html=1;exitX=1;exitY=0.5;exitDx=0;exitDy=0;entryX=0;entryY=0.5;entryDx=0;entryDy=0;" edge="1" parent="1" source="p7dw9C3AjrqsMlMxh2Bg-374" target="p7dw9C3AjrqsMlMxh2Bg-378">
          <mxGeometry relative="1" as="geometry" />
        </mxCell>
        <mxCell id="p7dw9C3AjrqsMlMxh2Bg-374" value="20001/肌肉训练" style="rounded=1;whiteSpace=wrap;html=1;" vertex="1" parent="1">
          <mxGeometry x="1250" y="2020" width="120" height="60" as="geometry" />
        </mxCell>
        <mxCell id="p7dw9C3AjrqsMlMxh2Bg-375" value="20002/双手武器专精" style="rounded=1;whiteSpace=wrap;html=1;" vertex="1" parent="1">
          <mxGeometry x="1430" y="2020" width="120" height="60" as="geometry" />
        </mxCell>
        <mxCell id="p7dw9C3AjrqsMlMxh2Bg-376" value="20004/双持武器专精" style="rounded=1;whiteSpace=wrap;html=1;" vertex="1" parent="1">
          <mxGeometry x="1610" y="2100" width="120" height="60" as="geometry" />
        </mxCell>
        <mxCell id="p7dw9C3AjrqsMlMxh2Bg-377" value="" style="rounded=1;whiteSpace=wrap;html=1;" vertex="1" parent="1">
          <mxGeometry x="1250" y="2100" width="120" height="60" as="geometry" />
        </mxCell>
        <mxCell id="p7dw9C3AjrqsMlMxh2Bg-390" style="edgeStyle=orthogonalEdgeStyle;rounded=0;orthogonalLoop=1;jettySize=auto;html=1;exitX=1;exitY=0.5;exitDx=0;exitDy=0;entryX=0;entryY=0.5;entryDx=0;entryDy=0;" edge="1" parent="1" source="p7dw9C3AjrqsMlMxh2Bg-378" target="p7dw9C3AjrqsMlMxh2Bg-376">
          <mxGeometry relative="1" as="geometry" />
        </mxCell>
        <mxCell id="p7dw9C3AjrqsMlMxh2Bg-378" value="20003/长柄武器专精" style="rounded=1;whiteSpace=wrap;html=1;" vertex="1" parent="1">
          <mxGeometry x="1430" y="2100" width="120" height="60" as="geometry" />
        </mxCell>
        <mxCell id="p7dw9C3AjrqsMlMxh2Bg-379" value="20007/双持武器掌握" style="rounded=1;whiteSpace=wrap;html=1;" vertex="1" parent="1">
          <mxGeometry x="1610" y="2180" width="120" height="60" as="geometry" />
        </mxCell>
        <mxCell id="p7dw9C3AjrqsMlMxh2Bg-391" style="edgeStyle=orthogonalEdgeStyle;rounded=0;orthogonalLoop=1;jettySize=auto;html=1;exitX=1;exitY=0.5;exitDx=0;exitDy=0;entryX=0;entryY=0.5;entryDx=0;entryDy=0;" edge="1" parent="1" source="p7dw9C3AjrqsMlMxh2Bg-380" target="p7dw9C3AjrqsMlMxh2Bg-381">
          <mxGeometry relative="1" as="geometry" />
        </mxCell>
        <mxCell id="p7dw9C3AjrqsMlMxh2Bg-380" value="20005/双手武器掌握" style="rounded=1;whiteSpace=wrap;html=1;" vertex="1" parent="1">
          <mxGeometry x="1250" y="2180" width="120" height="60" as="geometry" />
        </mxCell>
        <mxCell id="p7dw9C3AjrqsMlMxh2Bg-392" style="edgeStyle=orthogonalEdgeStyle;rounded=0;orthogonalLoop=1;jettySize=auto;html=1;exitX=1;exitY=0.5;exitDx=0;exitDy=0;entryX=0;entryY=0.5;entryDx=0;entryDy=0;" edge="1" parent="1" source="p7dw9C3AjrqsMlMxh2Bg-381" target="p7dw9C3AjrqsMlMxh2Bg-379">
          <mxGeometry relative="1" as="geometry" />
        </mxCell>
        <mxCell id="p7dw9C3AjrqsMlMxh2Bg-393" style="edgeStyle=orthogonalEdgeStyle;rounded=0;orthogonalLoop=1;jettySize=auto;html=1;exitX=1;exitY=0.5;exitDx=0;exitDy=0;entryX=0;entryY=0.5;entryDx=0;entryDy=0;" edge="1" parent="1" source="p7dw9C3AjrqsMlMxh2Bg-381" target="p7dw9C3AjrqsMlMxh2Bg-382">
          <mxGeometry relative="1" as="geometry" />
        </mxCell>
        <mxCell id="p7dw9C3AjrqsMlMxh2Bg-381" value="20006/长柄武器掌握" style="rounded=1;whiteSpace=wrap;html=1;" vertex="1" parent="1">
          <mxGeometry x="1430" y="2180" width="120" height="60" as="geometry" />
        </mxCell>
        <mxCell id="p7dw9C3AjrqsMlMxh2Bg-382" value="20008/潜能强化 力量" style="rounded=1;whiteSpace=wrap;html=1;" vertex="1" parent="1">
          <mxGeometry x="1610" y="2260" width="120" height="60" as="geometry" />
        </mxCell>
        <mxCell id="p7dw9C3AjrqsMlMxh2Bg-383" value="" style="rounded=1;whiteSpace=wrap;html=1;" vertex="1" parent="1">
          <mxGeometry x="1250" y="2260" width="120" height="60" as="geometry" />
        </mxCell>
        <mxCell id="p7dw9C3AjrqsMlMxh2Bg-384" value="" style="rounded=1;whiteSpace=wrap;html=1;" vertex="1" parent="1">
          <mxGeometry x="1430" y="2260" width="120" height="60" as="geometry" />
        </mxCell>
        <mxCell id="p7dw9C3AjrqsMlMxh2Bg-385" value="" style="rounded=1;whiteSpace=wrap;html=1;" vertex="1" parent="1">
          <mxGeometry x="1610" y="2340" width="120" height="60" as="geometry" />
        </mxCell>
        <mxCell id="p7dw9C3AjrqsMlMxh2Bg-386" value="" style="rounded=1;whiteSpace=wrap;html=1;" vertex="1" parent="1">
          <mxGeometry x="1250" y="2340" width="120" height="60" as="geometry" />
        </mxCell>
        <mxCell id="p7dw9C3AjrqsMlMxh2Bg-387" value="20010/语言精通" style="rounded=1;whiteSpace=wrap;html=1;" vertex="1" parent="1">
          <mxGeometry x="1430" y="2340" width="120" height="60" as="geometry" />
        </mxCell>
      </root>
    </mxGraphModel>
  </diagram>
</mxfile>
